<svg width="1417" height="682" viewBox="0 0 1417 682" fill="none" xmlns="http://www.w3.org/2000/svg">
<g clip-path="url(#clip0_1348_2163)">
<path d="M1397.14 152.498C1397.14 152.498 1398.26 152.974 1398.57 153.45C1398.89 153.927 1399.21 154.403 1399.21 155.039C1399.21 155.039 1399.05 156.151 1398.57 156.627C1398.1 157.104 1397.78 157.421 1397.14 157.58C1375.99 162.504 1344.03 171.875 1330.98 184.899C1317.94 197.923 1308.56 229.847 1303.63 250.972C1303.63 251.607 1303.15 252.084 1302.68 252.401C1302.2 252.719 1301.72 252.878 1301.09 252.878C1301.09 252.878 1299.97 252.719 1299.5 252.401C1299.02 252.084 1298.7 251.607 1298.54 250.972C1293.61 229.847 1284.23 197.923 1271.19 184.899C1258.15 171.875 1226.18 162.504 1205.03 157.58C1204.4 157.58 1203.92 157.104 1203.6 156.627C1203.28 156.151 1203.12 155.674 1203.12 155.039C1203.12 155.039 1203.28 153.927 1203.76 153.45C1204.08 152.974 1204.55 152.656 1205.19 152.498C1226.34 147.574 1258.31 138.203 1271.35 125.179C1284.39 112.155 1293.77 80.2301 1298.7 59.1058C1298.7 58.4705 1299.18 57.994 1299.66 57.6763C1300.13 57.3587 1300.61 57.041 1301.25 57.041C1301.25 57.041 1302.36 57.1998 1302.84 57.6763C1303.31 57.994 1303.63 58.4705 1303.79 59.1058C1308.72 80.2301 1318.1 112.155 1331.14 125.179C1344.18 138.203 1376.15 147.574 1397.3 152.498H1397.14Z" fill="#0254EC"/>
<path d="M1032.96 568.472H1205.19C1207.58 568.472 1209.48 570.378 1209.48 572.76V675.999C1209.48 678.382 1207.58 680.288 1205.19 680.288H836.396C833.215 680.288 831.148 677.27 832.579 674.411L1005.61 345.475L1009.1 338.01C1010.38 335.151 1008.31 331.975 1005.29 331.975H834.169C831.784 331.975 829.876 330.069 829.876 327.686L829.398 222.7C829.398 220.317 831.307 218.57 833.692 218.57H1208.05C1211.23 218.57 1213.3 222.065 1211.71 224.923L1033.75 554.495L1029.3 562.118C1027.71 564.977 1029.78 568.472 1032.96 568.472Z" fill="#0254EC"/>
<path d="M618.84 224.448L430.706 677.588C429.433 680.923 424.821 681.241 423.072 678.223L316.839 499.699C315.089 496.999 311.273 496.999 309.523 499.699L198.837 679.018C196.929 682.035 192.476 681.559 191.204 678.382L0.36523 224.448C-0.907026 221.589 1.31942 218.412 4.34103 218.412H120.434C122.025 218.412 123.615 219.365 124.41 220.953L214.422 408.849C216.013 412.184 220.624 412.184 222.215 408.849L307.138 220.953C308.728 217.777 313.34 217.777 314.93 220.953L397.309 408.372C398.899 411.708 403.67 411.549 405.261 408.213L486.844 221.112C487.48 219.524 489.07 218.412 490.82 218.412H614.546C617.727 218.412 619.795 221.589 618.522 224.448H618.84Z" fill="#0254EC"/>
<path d="M775.488 219.365H661.462C659.09 219.365 657.168 221.285 657.168 223.654V675.841C657.168 678.21 659.09 680.13 661.462 680.13H775.488C777.859 680.13 779.782 678.21 779.782 675.841V223.654C779.782 221.285 777.859 219.365 775.488 219.365Z" fill="#0254EC"/>
</g>
<defs>
<clipPath id="clip0_1348_2163">
<rect width="1416.78" height="681" fill="white" transform="translate(0 0.0410156)"/>
</clipPath>
</defs>
</svg>
